<svg xmlns="http://www.w3.org/2000/svg" xmlns:xlink="http://www.w3.org/1999/xlink" viewBox="0 0 228.77 228.77"><defs><style>.\34 36a5b3e-ef0d-44bf-824c-cea2e1aec28e{fill:url(#d064350a-8aa9-492c-b755-a7c466fd9ca4);}.efea3f83-ff34-4079-af9f-6350fedd0076{fill:url(#2bb214c1-dfd0-4f58-ad0a-365bba1023d1);}</style><linearGradient id="d064350a-8aa9-492c-b755-a7c466fd9ca4" x1="-0.78" y1="143.72" x2="197.37" y2="29.32" gradientUnits="userSpaceOnUse"><stop offset="0.07" stop-color="#ffea7f"/><stop offset="0.29" stop-color="#facb73"/><stop offset="0.75" stop-color="#ee7c55"/><stop offset="0.82" stop-color="#ec6f50"/></linearGradient><linearGradient id="2bb214c1-dfd0-4f58-ad0a-365bba1023d1" x1="52.84" y1="236.59" x2="250.99" y2="122.19" xlink:href="#d064350a-8aa9-492c-b755-a7c466fd9ca4"/></defs><title>資產 6</title><g id="240c3bee-395e-414c-99ce-21b5b26acd39" data-name="圖層 2"><g id="e4ae1c57-9a3d-4762-a147-883c90b62b1f" data-name="圖層 1"><path class="436a5b3e-ef0d-44bf-824c-cea2e1aec28e" d="M68,164.73c-13.74-10.3-21-12.25-21-12.25s50.65-28.68,67.78-37.67c59.67-31.34,99.16-16.57,113.7-8.51A114.38,114.38,0,1,0,28,189.39c10.32-.21,27.1-3.22,48.17-16.51A45,45,0,0,0,68,164.73Z"/><path class="efea3f83-ff34-4079-af9f-6350fedd0076" d="M106.46,185.28c-29.82,14.67-50.95,19-68.32,14.37a114.38,114.38,0,0,0,190.63-85.27c0-.18,0-.37,0-.56Z"/></g></g></svg>